<svg width="58" height="35" viewBox="0 0 58 35" fill="none" xmlns="http://www.w3.org/2000/svg">
<path d="M16.45 19.5L14.15 35H9.2L6.95 19.5C6.65 17.45 6.3 14.35 6 11.8C6.05 14.25 6.1 17.15 6.1 19.5V35H1.86265e-08V-2.38419e-06H9.75L11.45 13.55C11.7 15.4 11.8 17.45 11.95 19.5C12.1 17.45 12.2 15.4 12.45 13.55L14.15 -2.38419e-06H24.2V35H17.35V19.5C17.35 17.15 17.4 14.15 17.45 11.65C17.1 14.25 16.75 17.5 16.45 19.5ZM26.759 35V-2.38419e-06H33.759V28.4H38.909V35H26.759ZM40.3332 35V-2.38419e-06H50.5832C56.0832 -2.38419e-06 57.4832 1.75 57.4832 7.75V27.25C57.4832 33.25 56.0832 35 50.5832 35H40.3332ZM47.3332 28.4H49.1832C50.3332 28.4 50.4832 27.9 50.4832 26.4V8.6C50.4832 7.1 50.3332 6.6 49.1832 6.6H47.3332V28.4Z" fill="#F3F3F3"/>
</svg>
