<svg width="237" height="247" viewBox="0 0 237 247" fill="none" xmlns="http://www.w3.org/2000/svg">
<path d="M67.8996 60.2V56C67.8996 46.55 67.1996 43.05 59.1496 43.05H56.3496C48.6496 43.05 47.5996 46.55 47.5996 56V88.9H4.54961V50.4C4.54961 11.2 13.6496 -1.50204e-05 49.6996 -1.50204e-05H68.5996C104.3 -1.50204e-05 113.4 11.2 113.4 50.4V63C113.4 100.45 103.6 115.15 74.5496 148.05C55.2996 169.75 46.8996 180.95 45.4996 204.05H112.7V246.75H-0.000390474V207.55C-0.000390474 170.1 9.79961 155.4 39.1996 122.85C60.1996 99.05 67.8996 87.85 67.8996 60.2ZM190.946 60.2V56C190.946 46.55 190.246 43.05 182.196 43.05H179.396C171.696 43.05 170.646 46.55 170.646 56V88.9H127.596V50.4C127.596 11.2 136.696 -1.50204e-05 172.746 -1.50204e-05H191.646C227.346 -1.50204e-05 236.446 11.2 236.446 50.4V63C236.446 100.45 226.646 115.15 197.596 148.05C178.346 169.75 169.946 180.95 168.546 204.05H235.746V246.75H123.046V207.55C123.046 170.1 132.846 155.4 162.246 122.85C183.246 99.05 190.946 87.85 190.946 60.2Z" fill="#F3F3F3"/>
</svg>
